<svg xmlns="http://www.w3.org/2000/svg" viewBox="0 0 64 64">
  <defs>
    <linearGradient id="bg" x1="0" y1="0" x2="1" y2="1">
      <stop offset="0%" stop-color="#0f766e"/>
      <stop offset="100%" stop-color="#134e4a"/>
    </linearGradient>
    <linearGradient id="leaf" x1="0" y1="0" x2="1" y2="1">
      <stop offset="0%" stop-color="#86efac"/>
      <stop offset="100%" stop-color="#22c55e"/>
    </linearGradient>
  </defs>
  <rect width="64" height="64" rx="14" fill="url(#bg)"/>
  <path d="M32 46c-1.4 0-2.5-1.1-2.5-2.5V31.5c0-1.4 1.1-2.5 2.5-2.5s2.5 1.1 2.5 2.5v12c0 1.4-1.1 2.5-2.5 2.5z" fill="#d1fae5"/>
  <path d="M31 31c-9 0-15-6.7-15-15 8.3 0 14.1 4.3 16 10.5z" fill="url(#leaf)"/>
  <path d="M33 31c9 0 15-6.7 15-15-8.3 0-14.1 4.3-16 10.5z" fill="#4ade80"/>
</svg>
